<?xml version="1.0" encoding="UTF-8" standalone="no"?>
<!DOCTYPE svg PUBLIC "-//W3C//DTD SVG 1.1//EN" "http://www.w3.org/Graphics/SVG/1.1/DTD/svg11.dtd">
<svg width="100%" height="100%" viewBox="0 0 980 980" version="1.1" xmlns="http://www.w3.org/2000/svg" xmlns:xlink="http://www.w3.org/1999/xlink" xml:space="preserve" xmlns:serif="http://www.serif.com/" style="fill-rule:evenodd;clip-rule:evenodd;stroke-linejoin:round;stroke-miterlimit:2;">
    <g transform="matrix(0.1,0,0,-0.1,0,980)">
        <path d="M2358,9786C2333,9779 2301,9766 2287,9757C2161,9674 797,8313 666,8140C611,8066 590,7991 609,7931C622,7886 677,7809 776,7700C1003,7446 2620,5834 2835,5646C2987,5513 3049,5489 3149,5525C3221,5550 3275,5595 3538,5852L3794,6101L3952,5943C4039,5856 4110,5781 4110,5775C4110,5770 3985,5640 3833,5488C3681,5335 3558,5209 3560,5207C3563,5206 3606,5189 3655,5171C4115,5002 4617,4610 4875,4220C4985,4053 5125,3780 5185,3615C5195,3588 5205,3563 5207,3560C5209,3558 5371,3715 5566,3910L5922,4265L6080,4101L6239,3937L5961,3655C5808,3499 5655,3340 5620,3299C5517,3179 5485,3081 5524,2999C5559,2924 5689,2781 6121,2340C6937,1509 7658,801 7802,690C7910,606 7944,593 8016,609C8092,626 8139,662 8343,855C8591,1090 9576,2082 9678,2200C9808,2350 9826,2427 9758,2536C9696,2636 9535,2805 8830,3514C8039,4309 7603,4734 7487,4821C7389,4895 7350,4907 7272,4885C7189,4861 7128,4812 6849,4541L6603,4302L6447,4458C6360,4545 6290,4619 6290,4624C6290,4629 6334,4679 6388,4734C6587,4939 6675,5056 6722,5176C6764,5286 6776,5375 6760,5472L6747,5551L6776,5589C6792,5610 6826,5654 6853,5686C6918,5767 6955,5835 6993,5943C7023,6030 7024,6043 7025,6185C7025,6313 7022,6347 7002,6415C6918,6706 6675,6941 6390,7010C6275,7037 6115,7037 6000,7010C5871,6979 5750,6915 5646,6824L5557,6746L5488,6758C5393,6774 5355,6773 5264,6750C5159,6724 5056,6672 4967,6601C4928,6569 4803,6455 4691,6347C4578,6239 4484,6150 4481,6150C4477,6150 4404,6221 4318,6308L4161,6465L4478,6791C4653,6970 4812,7141 4832,7171C4853,7201 4876,7250 4883,7280C4912,7390 4873,7448 4547,7791C4278,8073 2846,9498 2685,9644C2530,9785 2462,9815 2358,9786ZM2648,8835L2865,8621L2650,8405L2435,8190L2212,8412L1988,8635L2202,8842C2319,8956 2419,9050 2423,9050C2428,9050 2529,8953 2648,8835ZM1995,8186L2215,7972L1997,7753L1780,7535L1557,7758L1335,7982L1550,8191C1668,8306 1767,8400 1770,8400C1773,8400 1874,8303 1995,8186ZM3335,8151L3505,7980L3075,7550L2645,7980L2857,8192L3069,8403L3117,8362C3143,8340 3241,8245 3335,8151ZM4155,7330L3725,6900L3285,7340L3715,7770L4155,7330ZM2805,7381L2855,7330L2420,6895L1990,7325L2204,7539L2419,7753L2587,7592C2679,7504 2777,7409 2805,7381ZM3290,6895L3505,6680L3070,6245L2984,6330C2937,6377 2842,6475 2774,6548C2665,6664 2651,6683 2660,6701C2676,6730 3051,7110 3064,7110C3070,7110 3172,7013 3290,6895ZM7573,3910C7676,3809 7760,3721 7760,3715C7760,3709 7665,3610 7550,3495L7340,3285L7117,3508L6895,3732L7110,3940L7325,4149L7355,4122C7371,4108 7469,4012 7573,3910ZM6899,3282C7015,3170 7110,3072 7110,3065C7110,3052 6748,2696 6703,2665C6682,2650 6678,2652 6603,2722C6454,2860 6250,3065 6250,3076C6250,3094 6661,3491 6676,3488C6683,3486 6783,3393 6899,3282ZM8201,3283L8411,3075L8195,2860L7980,2645L7550,3075L7757,3282C7871,3397 7971,3490 7978,3490C7986,3490 8086,3397 8201,3283ZM8843,2642L9060,2425L8630,1995L8190,2435L8402,2647C8519,2764 8617,2860 8620,2860C8623,2860 8723,2762 8843,2642ZM7545,2637C7658,2528 7750,2433 7750,2427C7750,2420 7654,2319 7537,2202L7325,1990L6895,2420L7105,2630C7221,2746 7321,2839 7327,2838C7334,2836 7432,2746 7545,2637ZM8193,1992L8410,1775L7975,1340L7535,1780L7750,1995C7868,2113 7967,2210 7970,2210C7973,2210 8073,2112 8193,1992Z" style="fill:rgb(0,72,248);fill-rule:nonzero;"/>
        <path d="M2125,5193C1877,5177 1619,5104 1443,4998C1369,4954 1276,4869 1255,4824C1127,4554 1381,3916 1904,3197C1959,3122 2007,3063 2011,3067C2024,3080 2135,3281 2184,3378C2220,3451 2228,3475 2220,3489C2215,3499 2167,3563 2114,3631C1924,3876 1753,4157 1734,4256C1714,4364 1810,4398 1982,4344C2324,4237 2847,3861 3345,3365C3775,2937 4094,2523 4261,2176C4336,2020 4363,1932 4364,1848C4365,1791 4362,1777 4342,1758C4272,1688 4078,1785 3640,2109C3545,2179 3468,2229 3459,2227C3435,2221 3147,2052 3114,2024L3085,2000L3136,1952C3164,1926 3260,1855 3351,1794C3895,1427 4352,1229 4653,1229C4771,1229 4827,1248 4887,1308C5015,1436 5117,1660 5167,1923C5195,2067 5192,2471 5162,2642C5103,2983 5015,3253 4864,3551C4718,3841 4584,4024 4330,4284C4060,4560 3854,4713 3530,4876C3070,5107 2563,5221 2125,5193Z" style="fill:rgb(0,72,248);fill-rule:nonzero;"/>
        <path d="M2808,3304C2771,3284 2720,3207 2462,2775C2341,2572 2234,2396 2226,2385C2212,2366 2210,2366 2183,2381C2096,2432 1925,2447 1832,2412C1710,2365 1629,2294 1580,2187C1485,1984 1538,1746 1703,1623C1851,1515 2087,1509 2234,1610C2339,1682 2401,1782 2421,1911C2431,1974 2430,1997 2415,2065C2381,2219 2360,2187 2595,2335C2992,2586 3255,2758 3289,2788C3321,2818 3322,2822 3318,2877C3311,2979 3220,3118 3095,3221C2982,3314 2880,3344 2808,3304Z" style="fill:rgb(0,72,248);fill-rule:nonzero;"/>
        <path d="M745,2106C700,2060 676,1922 676,1700C675,1514 689,1435 745,1297C865,999 1089,801 1408,712C1498,687 1519,685 1705,685C2004,685 2104,710 2124,791C2135,836 2127,871 2097,906C2077,929 2064,933 1980,941C1928,946 1837,954 1778,960C1438,993 1185,1164 1045,1455C982,1586 960,1684 950,1885C945,1979 938,2063 935,2072C913,2128 789,2150 745,2106Z" style="fill:rgb(0,72,248);fill-rule:nonzero;"/>
        <path d="M110,2088C69,2073 54,2046 35,1953C-4,1765 -9,1369 24,1195C48,1071 95,937 159,805C300,518 502,314 785,173C1007,62 1139,25 1368,10C1586,-5 1826,9 1975,47L2085,75L2088,161C2090,234 2088,251 2071,271L2052,295L1783,295C1489,296 1430,303 1250,362C900,475 592,748 425,1094C324,1303 302,1416 291,1789C284,2005 279,2065 268,2077C248,2096 153,2103 110,2088Z" style="fill:rgb(0,72,248);fill-rule:nonzero;"/>
    </g>
</svg>
