<?xml version="1.0" standalone="no"?>
<!DOCTYPE svg PUBLIC "-//W3C//DTD SVG 20010904//EN"
 "http://www.w3.org/TR/2001/REC-SVG-20010904/DTD/svg10.dtd">
<svg version="1.0" xmlns="http://www.w3.org/2000/svg"
 width="980.000000pt" height="980.000000pt" viewBox="0 0 980.000000 980.000000"
 preserveAspectRatio="xMidYMid meet">
<metadata>
Created by potrace 1.16, written by Peter Selinger 2001-2019
</metadata>
<g transform="translate(0.000000,980.000000) scale(0.100000,-0.100000)"
fill="#000000" stroke="none">
<path d="M2358 9786 c-25 -7 -57 -20 -71 -29 -126 -83 -1490 -1444 -1621
-1617 -55 -74 -76 -149 -57 -209 13 -45 68 -122 167 -231 227 -254 1844 -1866
2059 -2054 152 -133 214 -157 314 -121 72 25 126 70 389 327 l256 249 158
-158 c87 -87 158 -162 158 -168 0 -5 -125 -135 -277 -287 -152 -153 -275 -279
-273 -281 3 -1 46 -18 95 -36 460 -169 962 -561 1220 -951 110 -167 250 -440
310 -605 10 -27 20 -52 22 -55 2 -2 164 155 359 350 l356 355 158 -164 159
-164 -278 -282 c-153 -156 -306 -315 -341 -356 -103 -120 -135 -218 -96 -300
35 -75 165 -218 597 -659 816 -831 1537 -1539 1681 -1650 108 -84 142 -97 214
-81 76 17 123 53 327 246 248 235 1233 1227 1335 1345 130 150 148 227 80 336
-62 100 -223 269 -928 978 -791 795 -1227 1220 -1343 1307 -98 74 -137 86
-215 64 -83 -24 -144 -73 -423 -344 l-246 -239 -156 156 c-87 87 -157 161
-157 166 0 5 44 55 98 110 199 205 287 322 334 442 42 110 54 199 38 296 l-13
79 29 38 c16 21 50 65 77 97 65 81 102 149 140 257 30 87 31 100 32 242 0 128
-3 162 -23 230 -84 291 -327 526 -612 595 -115 27 -275 27 -390 0 -129 -31
-250 -95 -354 -186 l-89 -78 -69 12 c-95 16 -133 15 -224 -8 -105 -26 -208
-78 -297 -149 -39 -32 -164 -146 -276 -254 -113 -108 -207 -197 -210 -197 -4
0 -77 71 -163 158 l-157 157 317 326 c175 179 334 350 354 380 21 30 44 79 51
109 29 110 -10 168 -336 511 -269 282 -1701 1707 -1862 1853 -155 141 -223
171 -327 142z m290 -951 l217 -214 -215 -216 -215 -215 -223 222 -224 223 214
207 c117 114 217 208 221 208 5 0 106 -97 225 -215z m-653 -649 l220 -214
-218 -219 -217 -218 -223 223 -222 224 215 209 c118 115 217 209 220 209 3 0
104 -97 225 -214z m1340 -35 l170 -171 -215 -215 -215 -215 -215 215 -215 215
212 212 212 211 48 -41 c26 -22 124 -117 218 -211z m605 -1036 l-215 -215
-220 220 -220 220 215 215 215 215 220 -220 220 -220 -215 -215z m-1135 266
l50 -51 -218 -218 -217 -217 -215 215 -215 215 214 214 215 214 168 -161 c92
-88 190 -183 218 -211z m485 -486 l215 -215 -217 -217 -218 -218 -86 85 c-47
47 -142 145 -210 218 -109 116 -123 135 -114 153 16 29 391 409 404 409 6 0
108 -97 226 -215z m4283 -2985 c103 -101 187 -189 187 -195 0 -6 -95 -105
-210 -220 l-210 -210 -223 223 -222 224 215 208 215 209 30 -27 c16 -14 114
-110 218 -212z m-674 -628 c116 -112 211 -210 211 -217 0 -13 -362 -369 -407
-400 -21 -15 -25 -13 -100 57 -149 138 -353 343 -353 354 0 18 411 415 426
412 7 -2 107 -95 223 -206z m1302 1 l210 -208 -216 -215 -215 -215 -215 215
-215 215 207 207 c114 115 214 208 221 208 8 0 108 -93 223 -207z m642 -641
l217 -217 -215 -215 -215 -215 -220 220 -220 220 212 212 c117 117 215 213
218 213 3 0 103 -98 223 -218z m-1298 -5 c113 -109 205 -204 205 -210 0 -7
-96 -108 -213 -225 l-212 -212 -215 215 -215 215 210 210 c116 116 216 209
222 208 7 -2 105 -92 218 -201z m648 -645 l217 -217 -218 -218 -217 -217 -220
220 -220 220 215 215 c118 118 217 215 220 215 3 0 103 -98 223 -218z"/>
<path d="M2125 5193 c-248 -16 -506 -89 -682 -195 -74 -44 -167 -129 -188
-174 -128 -270 126 -908 649 -1627 55 -75 103 -134 107 -130 13 13 124 214
173 311 36 73 44 97 36 111 -5 10 -53 74 -106 142 -190 245 -361 526 -380 625
-20 108 76 142 248 88 342 -107 865 -483 1363 -979 430 -428 749 -842 916
-1189 75 -156 102 -244 103 -328 1 -57 -2 -71 -22 -90 -70 -70 -264 27 -702
351 -95 70 -172 120 -181 118 -24 -6 -312 -175 -345 -203 l-29 -24 51 -48 c28
-26 124 -97 215 -158 544 -367 1001 -565 1302 -565 118 0 174 19 234 79 128
128 230 352 280 615 28 144 25 548 -5 719 -59 341 -147 611 -298 909 -146 290
-280 473 -534 733 -270 276 -476 429 -800 592 -460 231 -967 345 -1405 317z"/>
<path d="M2808 3304 c-37 -20 -88 -97 -346 -529 -121 -203 -228 -379 -236
-390 -14 -19 -16 -19 -43 -4 -87 51 -258 66 -351 31 -122 -47 -203 -118 -252
-225 -95 -203 -42 -441 123 -564 148 -108 384 -114 531 -13 105 72 167 172
187 301 10 63 9 86 -6 154 -34 154 -55 122 180 270 397 251 660 423 694 453
32 30 33 34 29 89 -7 102 -98 241 -223 344 -113 93 -215 123 -287 83z"/>
<path d="M745 2106 c-45 -46 -69 -184 -69 -406 -1 -186 13 -265 69 -403 120
-298 344 -496 663 -585 90 -25 111 -27 297 -27 299 0 399 25 419 106 11 45 3
80 -27 115 -20 23 -33 27 -117 35 -52 5 -143 13 -202 19 -340 33 -593 204
-733 495 -63 131 -85 229 -95 430 -5 94 -12 178 -15 187 -22 56 -146 78 -190
34z"/>
<path d="M110 2088 c-41 -15 -56 -42 -75 -135 -39 -188 -44 -584 -11 -758 24
-124 71 -258 135 -390 141 -287 343 -491 626 -632 222 -111 354 -148 583 -163
218 -15 458 -1 607 37 l110 28 3 86 c2 73 0 90 -17 110 l-19 24 -269 0 c-294
1 -353 8 -533 67 -350 113 -658 386 -825 732 -101 209 -123 322 -134 695 -7
216 -12 276 -23 288 -20 19 -115 26 -158 11z"/>
</g>
</svg>
